<?xml version="1.0" standalone="no"?>
<!DOCTYPE svg PUBLIC "-//W3C//DTD SVG 20010904//EN"
 "http://www.w3.org/TR/2001/REC-SVG-20010904/DTD/svg10.dtd">
<svg version="1.0" xmlns="http://www.w3.org/2000/svg"
 width="963.000000pt" height="259.000000pt" viewBox="0 0 963.000000 259.000000"
 preserveAspectRatio="xMidYMid meet">

<g transform="translate(0.000000,259.000000) scale(0.100000,-0.100000)"
fill="#FF0000" stroke="none">
<path d="M888 2329 c-17 -9 -18 -71 -18 -1060 0 -853 2 -1051 13 -1055 7 -2
59 2 115 11 56 8 117 15 137 15 25 0 37 6 46 21 8 16 10 172 8 577 -3 405 -1
556 7 559 6 2 14 -4 17 -14 3 -10 31 -90 62 -178 32 -88 83 -234 115 -325 32
-91 85 -243 119 -338 54 -155 89 -242 96 -242 23 0 315 32 328 36 16 5 17 59
15 1002 l-3 997 -150 0 -150 0 -5 -605 c-4 -476 -8 -601 -17 -584 -6 11 -34
85 -61 165 -28 79 -73 209 -102 289 -29 80 -56 156 -60 170 -5 14 -33 95 -63
180 -31 85 -72 202 -92 260 -20 58 -44 111 -53 118 -20 15 -278 16 -304 1z"/>
<path d="M2337 2333 c-10 -9 -8 -1935 1 -1951 7 -10 38 -10 163 2 85 8 235 20
334 26 99 7 205 15 235 18 l55 7 3 144 3 144 -128 -7 c-70 -3 -176 -9 -235
-13 l-108 -6 0 250 c0 245 0 251 21 256 11 3 94 3 184 1 110 -4 170 -2 184 6
19 10 21 19 21 128 0 179 22 161 -209 164 l-196 3 0 265 0 265 230 5 230 5 0
145 0 145 -391 3 c-215 1 -393 -1 -397 -5z"/>
<path d="M3477 2333 c-4 -3 -7 -71 -7 -149 l0 -143 153 -3 152 -3 5 -785 5
-785 155 4 c85 2 157 5 160 8 3 3 7 354 10 781 l5 777 150 5 150 5 0 145 0
145 -466 3 c-256 1 -469 -1 -472 -5z"/>
<path d="M4765 2328 c-3 -7 -4 -425 -3 -928 l3 -915 135 -5 c74 -3 147 -4 163
-2 l27 3 0 358 0 358 40 6 c22 3 100 3 174 0 74 -3 146 -3 160 1 l26 6 0 145
0 145 -197 2 -198 3 0 265 0 265 226 3 227 2 3 28 c2 15 2 81 -1 147 l-5 120
-388 3 c-305 2 -389 0 -392 -10z"/>
<path d="M5907 2333 c-4 -3 -7 -426 -7 -939 l0 -933 53 -5 c28 -3 133 -8 232
-11 99 -3 251 -10 339 -16 87 -6 160 -8 163 -5 7 6 4 278 -2 285 -3 3 -67 9
-143 13 -75 5 -176 12 -225 16 l-87 7 -3 785 c-2 432 -7 791 -11 798 -8 13
-297 18 -309 5z"/>
<path d="M7037 2333 c-10 -9 -9 -1931 1 -1937 14 -9 303 -29 310 -21 13 12 14
1936 1 1951 -9 11 -46 14 -159 14 -80 0 -150 -3 -153 -7z"/>
<path d="M7693 2323 c3 -10 28 -83 57 -163 29 -80 58 -163 65 -185 8 -22 32
-92 55 -155 23 -63 56 -158 74 -210 19 -52 40 -113 48 -135 40 -108 44 -133
29 -163 -13 -26 -28 -60 -65 -152 -34 -87 -113 -278 -186 -455 -82 -199 -143
-356 -139 -359 2 -2 54 -9 114 -15 61 -6 127 -14 147 -17 34 -5 39 -3 57 26
11 18 40 85 66 149 69 174 77 192 95 236 9 22 27 68 40 103 12 34 28 62 35 62
13 0 40 -68 151 -390 37 -107 76 -207 86 -222 12 -17 31 -29 51 -32 178 -25
280 -37 283 -33 4 4 -48 156 -183 537 -30 85 -72 205 -93 265 -20 61 -56 160
-79 221 -38 103 -40 113 -27 140 8 16 66 160 131 319 64 160 120 299 125 310
14 30 130 327 130 331 0 8 -305 4 -317 -4 -15 -9 -38 -61 -138 -312 -79 -198
-99 -237 -109 -209 -18 49 -130 371 -141 404 -23 72 -44 112 -60 119 -9 3 -82
6 -162 6 -134 0 -145 -1 -140 -17z"/>
</g>
</svg>
